# xmcd
#
# Track frame offsets:
#	150
#	11992
#	25925
#	52777
#	65380
#	91552
#	114520
#	134890
#	154750
#	170237
#	187560
#	201602
#	216512
#	229692
#	251927
#
# Disc length: 3556
#
# Revision: 2
# Processed by: cddbd v1.5.1PL0 Copyright (c) Steve Scherf et al.
# Submitted via: CDex 1.50beta10
# Normalized: r0:TSWAP
#
DISCID=d70de20f
DTITLE=Various Artist - Made Of Jazz
DYEAR=1996
DGENRE=Jazz
TTITLE0=Johnny Hartman - Unforgettable
TTITLE1=Little Jimmy Scott - I Whish I Knew
TTITLE2=Duke Ellington and Coleman Hawkins - Mood Indigo
TTITLE3=John Coltrane - It's Easy To Remember
TTITLE4=Coleman Hawkins - Desafinado
TTITLE5=Zoot Sims - Over The Rainbow
TTITLE6=Ben Webster - Someone to Watch Over Me
TTITLE7=Coleman Hawkins - Body and Soul
TTITLE8=Louis Armstrong - La Vie En Rose
TTITLE9=J.J. Johnson and Kai Winding - Georgia On My Mind
TTITLE10=Ella Fitzgerald and Louis Armstrong - Dream A little Dream Of Me
TTITLE11=Ella Fitzgerald - I've Got the World On A String
TTITLE12=That Old Devil Called Love - Billie Holiday
TTITLE13=John Coltrane and Johnny Hartman - My One And Only Love
TTITLE14=Carmen McRae - Ain't Misbehavin'
EXTD=YEAR: 1996
EXTT0=
EXTT1=
EXTT2=
EXTT3=
EXTT4=
EXTT5=
EXTT6=
EXTT7=
EXTT8=
EXTT9=
EXTT10=
EXTT11=
EXTT12=
EXTT13=
EXTT14=
PLAYORDER=
